<svg viewBox="0 -28 512.00009 512" xmlns="http://www.w3.org/2000/svg"><path d="m93.425781 214.707031v-118.09375l-82.625 41.527344c-14.402343 7.238281-14.402343 27.796875 0 35.035156zm0 0" fill="#ff9478"/><path d="m507.613281 226.78125c-2.859375-19.335938-25.238281-28.710938-41.117187-17.3125-38.375 27.554688-84.75 34.019531-118.054688 34.390625-12.078125.132813-19.960937-12.589844-14.507812-23.367187 10.226562-20.21875 16.070312-43.035157 16.273437-67.195313.703125-83.203125-66.621093-152.128906-149.820312-153.28125-84.929688-1.179687-154.144531 67.3125-154.144531 151.96875 0 33.949219 11.132812 65.296875 29.941406 90.59375 6.957031 9.355469 8.554687 21.652344 4.238281 32.476563-6.257813 15.699218-11.648437 34.597656-13.578125 55.785156-6.09375 66.96875 46.917969 124.625 114.164062 124.625h196.269532c57.082031 0 107.574218-37.3125 124.03125-91.972656 14.582031-48.441407 11.679687-100.394532 6.304687-136.710938zm0 0" fill="#ffde55"/><path d="m408.539062 363.355469s-153.589843 27.398437-236.925781-106.222657c-65.824219-105.546874-22.28125-213.78125-1.078125-254.605468-70.714844 13.019531-124.292968 74.976562-124.292968 149.457031 0 33.949219 11.132812 65.296875 29.941406 90.59375 6.957031 9.355469 8.554687 21.652344 4.238281 32.476563-6.257813 15.699218-11.648437 34.597656-13.578125 55.785156-6.09375 66.96875 46.917969 124.625 114.164062 124.625h147.597657c-2.613281-14.378906 3.867187-30.375 19.582031-37.53125 41.328125-18.816406 60.351562-54.578125 60.351562-54.578125zm0 0" fill="#ffcd00"/><path d="m275.023438 281.097656h131.558593c20.464844 0 34.699219 20.585938 27.210938 39.632813-14.472657 36.808593-48.585938 85.960937-127.605469 85.960937-64.503906 0-87.476562-23.886718-93-51.273437-7.769531-38.535157 22.527344-74.320313 61.835938-74.320313zm0 0" fill="#ffeb99"/><path d="m155.179688 148.566406c0-13.582031-13.824219-24.589844-30.878907-24.589844-17.050781 0-30.875 11.007813-30.875 24.589844 0 13.578125 13.824219 24.589844 30.875 24.589844 17.054688 0 30.878907-11.011719 30.878907-24.589844zm0 0" fill="#ffa6bb"/><path d="m110.558594 135.066406c-4.265625 0-7.726563-3.457031-7.726563-7.726562v-12.824219c0-4.269531 3.460938-7.726563 7.726563-7.726563 4.269531 0 7.726562 3.457032 7.726562 7.726563v12.824219c0 4.269531-3.457031 7.726562-7.726562 7.726562zm0 0" fill="#57565c"/></svg>