<?xml version="1.0" encoding="iso-8859-1"?>
<!-- Generator: Adobe Illustrator 19.0.0, SVG Export Plug-In . SVG Version: 6.00 Build 0)  -->
<svg version="1.1" id="Capa_1" xmlns="http://www.w3.org/2000/svg" xmlns:xlink="http://www.w3.org/1999/xlink" x="0px" y="0px"
	 viewBox="0 0 512 512" style="enable-background:new 0 0 512 512;" xml:space="preserve">
<circle style="fill:#FF328E;" cx="256" cy="256" r="256"/>
<path style="fill:#C50A5B;" d="M256,512c141.385,0,256-114.615,256-256c0-6.78-0.269-13.497-0.786-20.144L396.167,120.809
	C376.603,99.418,348.466,86,317.193,86c-22.758,0-43.853,7.111-61.195,19.224C238.656,93.111,217.562,86,194.804,86
	c-59.094,0-107,47.906-107,107c0,29.25,11.739,55.756,30.759,75.071l47.078,47.064c-3.088-0.062-6.235,0.458-9.371,2.015
	c-2.48,1.23-70.543,34.926-124.852,61.806C74.92,458.244,159.179,512,256,512z"/>
<path style="fill:#FFDBA9;" d="M389.83,370.65L285.8,422.24c-19.14,9.5-41.38,19.82-62.75,13.74c-26.81-7.64-29.52-6.1-43.88,1.03
	l-64.98,32.15c-28.1-18.73-52.28-42.86-71.07-70.92l116.42-57.63c1.86-0.92,3.96-1.12,5.83-0.54l96.86,29.42
	c1.87,0.57,3.97,0.37,5.82-0.54l97.06-48.15c14.42-7.16,31.11-3.34,38.84,8.37c0.56,0.84,1.07,1.74,1.53,2.66
	C412.3,345.6,405.3,362.97,389.83,370.65z"/>
<path style="fill:#FFC473;" d="M268.05,367.71c-4,10.99-18.73,16.43-29.9,12.98c0,0-23.66-7.32-23.76-7.35l-49.28-15.28
	L53.88,413.12c-3.76-4.82-7.35-9.79-10.76-14.88c-4.18-6.24-8.09-12.67-11.71-19.28c54.31-26.88,122.38-60.58,124.86-61.81
	c8.94-4.44,17.98-0.56,25.42,1.73c4.76,1.48,71.02,21.85,71.02,21.85c5.23,1.62,9.8,5.23,12.77,9.73
	C268.86,355.59,270.19,361.87,268.05,367.71z"/>
<circle style="fill:#FEC000;" cx="317.19" cy="193" r="107"/>
<path style="fill:#FF9A00;" d="M424.196,193c0,59.1-47.91,106.998-106.997,106.998V86.003C376.286,86.003,424.196,133.9,424.196,193
	z"/>
<circle style="fill:#AB3CCC;" cx="275.62" cy="167.9" r="18.38"/>
<circle style="fill:#451152;" cx="358.77" cy="167.9" r="18.38"/>
<path style="fill:#AB3CCC;" d="M317.193,262.211c27.623,0,51.154-18.961,60.093-45.513H257.1
	C266.04,243.25,289.57,262.211,317.193,262.211z"/>
<path style="fill:#451152;" d="M377.288,216.695c-8.939,26.557-32.465,45.516-60.089,45.516v-45.516H377.288z"/>
<circle style="fill:#FFE670;" cx="194.8" cy="193" r="107"/>
<path style="fill:#FFD400;" d="M301.809,193c0,59.1-47.91,106.998-107.011,106.998V86.003C253.899,86.003,301.809,133.9,301.809,193
	z"/>
<circle style="fill:#AB3CCC;" cx="153.23" cy="167.9" r="18.38"/>
<circle style="fill:#681F7B;" cx="236.38" cy="167.9" r="18.38"/>
<path style="fill:#AB3CCC;" d="M194.804,262.211c27.623,0,51.153-18.961,60.093-45.513H134.711
	C143.65,243.25,167.18,262.211,194.804,262.211z"/>
<path style="fill:#681F7B;" d="M254.901,216.695c-8.939,26.557-32.478,45.516-60.102,45.516v-45.516H254.901z"/>
<g>
</g>
<g>
</g>
<g>
</g>
<g>
</g>
<g>
</g>
<g>
</g>
<g>
</g>
<g>
</g>
<g>
</g>
<g>
</g>
<g>
</g>
<g>
</g>
<g>
</g>
<g>
</g>
<g>
</g>
</svg>
